<svg xmlns="http://www.w3.org/2000/svg" width="1672" height="941" viewBox="0 0 1672 941" role="img" aria-labelledby="title desc">
  <title id="title">Agent action space</title>
  <desc id="desc">An agent accesses environment capabilities through controlled tools and permissions.</desc>
  <rect width="1672" height="941" fill="#f8fafc"/>
  <text x="120" y="132" font-size="54" font-weight="800" fill="#172033" font-family="ui-sans-serif,system-ui">Tools define the action space</text>
  <text x="123" y="184" font-size="25" fill="#64748b" font-family="ui-sans-serif,system-ui">More tools create more capability and more risk, so permissions matter.</text>
  <defs><marker id="a" markerWidth="13" markerHeight="13" refX="10" refY="6.5" orient="auto"><path d="M2 2 L11 6.5 L2 11 Z" fill="#64748b"/></marker></defs>
  <circle cx="836" cy="486" r="105" fill="#4f46e5"/>
  <text x="836" y="478" text-anchor="middle" font-size="34" font-weight="800" fill="#fff" font-family="ui-sans-serif,system-ui">Agent</text>
  <text x="836" y="518" text-anchor="middle" font-size="22" fill="#dbeafe" font-family="ui-sans-serif,system-ui">controlled runtime</text>
  <g font-family="ui-sans-serif,system-ui" font-size="25" font-weight="800">
    <rect x="214" y="300" width="230" height="84" rx="8" fill="#e0f2fe" stroke="#38bdf8" stroke-width="3"/><text x="329" y="352" text-anchor="middle" fill="#075985">Search</text>
    <rect x="214" y="588" width="230" height="84" rx="8" fill="#dcfce7" stroke="#22c55e" stroke-width="3"/><text x="329" y="640" text-anchor="middle" fill="#166534">Files</text>
    <rect x="604" y="744" width="230" height="84" rx="8" fill="#fef3c7" stroke="#fcd34d" stroke-width="3"/><text x="719" y="796" text-anchor="middle" fill="#92400e">Code</text>
    <rect x="838" y="744" width="230" height="84" rx="8" fill="#fee2e2" stroke="#fca5a5" stroke-width="3"/><text x="953" y="796" text-anchor="middle" fill="#991b1b">Database</text>
    <rect x="1228" y="588" width="230" height="84" rx="8" fill="#ede9fe" stroke="#8b5cf6" stroke-width="3"/><text x="1343" y="640" text-anchor="middle" fill="#5b21b6">Browser</text>
    <rect x="1228" y="300" width="230" height="84" rx="8" fill="#cffafe" stroke="#22d3ee" stroke-width="3"/><text x="1343" y="352" text-anchor="middle" fill="#0e7490">Business API</text>
  </g>
  <path d="M444 342 C566 360 648 402 735 452" stroke="#64748b" stroke-width="5" marker-end="url(#a)" fill="none"/>
  <path d="M444 630 C566 612 648 570 735 520" stroke="#64748b" stroke-width="5" marker-end="url(#a)" fill="none"/>
  <path d="M719 744 C740 666 767 604 800 584" stroke="#64748b" stroke-width="5" marker-end="url(#a)" fill="none"/>
  <path d="M953 744 C932 666 905 604 872 584" stroke="#64748b" stroke-width="5" marker-end="url(#a)" fill="none"/>
  <path d="M1228 630 C1106 612 1024 570 937 520" stroke="#64748b" stroke-width="5" marker-end="url(#a)" fill="none"/>
  <path d="M1228 342 C1106 360 1024 402 937 452" stroke="#64748b" stroke-width="5" marker-end="url(#a)" fill="none"/>
</svg>
